<svg xmlns="http://www.w3.org/2000/svg" width="50.145" height="47.818" viewBox="0 0 50.145 47.818"><defs><style>.a{fill:#ffdc64;}.b{fill:#ffc850;}</style></defs><g transform="translate(0 -11.877)"><path class="a" d="M48.961,29.152,32.719,27.645,26.267,12.664a1.3,1.3,0,0,0-2.391,0L17.425,27.645,1.183,29.152a1.3,1.3,0,0,0-.739,2.274L12.7,42.191,9.112,58.1a1.3,1.3,0,0,0,1.934,1.405l14.026-8.328L39.1,59.509A1.3,1.3,0,0,0,41.032,58.1L37.446,42.191,49.7,31.425A1.3,1.3,0,0,0,48.961,29.152Z" transform="translate(0)"/><path class="b" d="M26.267,12.664a1.3,1.3,0,0,0-2.391,0L17.425,27.645,1.183,29.152a1.3,1.3,0,0,0-.739,2.274L12.7,42.191,9.112,58.1a1.3,1.3,0,0,0,1.934,1.405l3.13-1.859A57.4,57.4,0,0,1,29.458,20.071Z" transform="translate(0)"/></g></svg>